<svg xmlns="http://www.w3.org/2000/svg" width="200" height="35" viewBox="0 -6 300 52.05"><g fill="#FDC70F"><path d="M1 11.93h3.06v9.8c0 1.8.1 3.1.3 3.88a3.6 3.6 0 0 0 1.12 1.91c.56.47 1.33.8 2.3 1a22.5 22.5 0 0 0 4.17.3c2.32 0 4.12-.18 5.4-.53s2.25-.94 2.9-1.75a4.2 4.2 0 0 0 .85-1.84c.16-.74.23-1.8.23-3.2v-9.56h3.06v19.34h-3.06v-2.9h-.18a5.7 5.7 0 0 1-3.1 2.5c-1.3.43-3.44.64-6.46.64a28.2 28.2 0 0 1-5.56-.43c-1.35-.3-2.4-.76-3.16-1.43-.7-.6-1.18-1.42-1.46-2.46S1 24.62 1 22.62v-10.7zm45.5 12.34h3.12c-.04 2.35-.58 4.06-1.6 5.14-.75.8-1.76 1.34-3.03 1.64s-3.15.46-5.65.46c-3.34 0-5.8-.12-7.42-.36s-2.83-.7-3.7-1.32c-1.9-1.43-2.83-4.15-2.83-8.17 0-2.84.4-4.97 1.22-6.4a6 6 0 0 1 3.46-2.82c1.5-.5 3.98-.74 7.42-.74 3.1 0 5.4.16 6.9.48s2.66.88 3.44 1.68a4.9 4.9 0 0 1 1.2 2c.24.77.4 1.75.46 3h-3.2c-.04-1.82-.63-3.02-1.78-3.6s-3.5-.87-7.04-.87c-3.48 0-5.75.35-6.83 1.06-.7.46-1.22 1.2-1.54 2.23a14.7 14.7 0 0 0-.48 4.21c0 1.68.2 3 .58 3.98s1 1.67 1.82 2.1c1.14.58 3.7.88 7.68.88 3.14 0 5.2-.3 6.18-.87s1.5-1.8 1.58-3.68zm4.04-12.34h3.06v9.8c0 1.8.1 3.1.3 3.88a3.6 3.6 0 0 0 1.1 1.9c.56.47 1.33.8 2.3 1a22.5 22.5 0 0 0 4.17.3c2.32 0 4.13-.18 5.4-.53s2.25-.94 2.9-1.75a4.2 4.2 0 0 0 .85-1.84c.16-.74.23-1.8.23-3.2v-9.56h3.06v19.34h-3.06v-2.9h-.18a5.7 5.7 0 0 1-3.1 2.5c-1.3.43-3.44.64-6.46.64a28.2 28.2 0 0 1-5.56-.43c-1.34-.3-2.4-.76-3.16-1.43-.7-.6-1.18-1.42-1.46-2.46a18.9 18.9 0 0 1-.42-4.56v-10.7zm25.36 0h20.9v2.7L79.57 28.65H96.9v2.6H75.2V28.3l17-13.75H75.9v-2.6z"/><path d="M100.54 17.73h-3.18l-.04-.84c0-2.02.76-3.4 2.28-4.14s4.37-1.1 8.56-1.1c3.3 0 5.65.15 7.1.45s2.57.87 3.38 1.7a4.8 4.8 0 0 1 1.32 2.4 25.9 25.9 0 0 1 .31 4.85v10.2h-3.04l.06-2.26h-.16a5.1 5.1 0 0 1-2.74 2.05c-1.07.3-3.08.46-6.04.46-3.38 0-5.73-.08-7.05-.24s-2.32-.5-3-1.02a3.9 3.9 0 0 1-1.42-1.75 8 8 0 0 1-.4-2.85c0-1.5.2-2.64.6-3.44s1.08-1.4 2.03-1.8c1.03-.45 3.44-.67 7.23-.67 3.97 0 6.56.12 7.78.36a4.4 4.4 0 0 1 2.83 1.72h.26v-2.08c0-1.7-.3-2.92-.92-3.67a4.2 4.2 0 0 0-2.47-1.36c-1.1-.24-2.92-.36-5.43-.36-3.3 0-5.44.2-6.4.58s-1.46 1.23-1.46 2.54v.26zm7.82 4.7l-5.28.13c-1 .1-1.72.25-2.14.5-.8.47-1.2 1.35-1.2 2.63 0 1.26.48 2.12 1.43 2.57.77.37 3.38.55 7.82.55 3.25 0 5.4-.2 6.44-.63S117 26.9 117 25.62c0-1.25-.58-2.1-1.75-2.53s-3.46-.65-6.9-.65zm13.7-19.03h7.43v10.8h.33c.75-1.23 1.7-2.07 2.87-2.5s2.98-.67 5.46-.67c2.45 0 4.4.14 5.9.43a8.4 8.4 0 0 1 3.52 1.42 5.4 5.4 0 0 1 1.99 2.89c.35 1.2.53 3.1.53 5.66l-.16 3.82a10.1 10.1 0 0 1-.58 2.45 5.4 5.4 0 0 1-3.32 3.28c-1.64.63-4.2.94-7.67.94s-5.87-.4-7.18-1.2c-.6-.36-1.16-1-1.7-1.93h-.4v2.6h-7v-28zm14.05 13.2c-2.56 0-4.27.23-5.15.7a2.4 2.4 0 0 0-1.16 1.37c-.2.6-.3 1.57-.3 2.87 0 1.4.12 2.38.38 2.96s.75 1 1.47 1.24c1 .37 2.65.56 4.9.56 2.6 0 4.35-.27 5.2-.82a2.3 2.3 0 0 0 .94-1.37c.17-.62.27-1.57.27-2.83a8 8 0 0 0-.36-2.83c-.24-.57-.68-1-1.34-1.25-.98-.4-2.6-.6-4.84-.6zm14.66-13.2h7.43V9h-7.43V3.4zm0 8.12h7.43V31.4h-7.43V11.53zm8.68-8.12h7.42v28h-7.42v-28zm0 29.96h7.42v4.55h-7.42v-4.55zm0 6.74h7.42v2.98h-7.42V40.1zm0 6h7.42v1.94h-7.42V46.1zm27.85-21.05h7.4c-.2 2.16-.86 3.7-1.97 4.66-.96.83-2.3 1.4-4.06 1.73s-4.37.48-7.87.48c-2.9 0-5.1-.14-6.65-.42s-2.77-.76-3.67-1.45a5.6 5.6 0 0 1-1.97-2.9c-.37-1.2-.53-3.07-.53-5.6 0-1.9.07-3.3.2-4.26a8.4 8.4 0 0 1 .78-2.57c.8-1.6 2.23-2.62 4.3-3.1 1.78-.4 4.54-.62 8.3-.62 3.3 0 5.64.12 7 .35 2.4.4 4.06 1.3 4.96 2.7s1.35 3.72 1.35 7l-.04 2H175.4c0 1 .07 1.74.2 2.18a2.1 2.1 0 0 0 .77 1.1c.74.55 2.4.82 5 .82 1.66 0 2.9-.06 3.73-.2s1.4-.35 1.7-.65c.25-.25.42-.67.5-1.27zm.1-6.03l-.15-1.6a1.8 1.8 0 0 0-.44-.79c-.64-.66-2.36-.98-5.15-.98-2.5 0-4.16.22-4.96.66s-1.24 1.35-1.3 2.73h12z"/><path d="M198.77 6.96h7.42v4.57h11.75v5.3H206.2v5.78c0 1.56.1 2.54.33 2.93.37.68 1.24 1.02 2.63 1.02 1.44 0 2.32-.33 2.67-.98.14-.26.22-.52.25-.77a24.6 24.6 0 0 0 .04-1.94h6.8c-.03 1.9-.14 3.28-.34 4.12a6 6 0 0 1-1.16 2.36 5.8 5.8 0 0 1-3.07 1.98c-1.3.38-3.24.56-5.8.56-2.38 0-4.15-.13-5.3-.4a5.7 5.7 0 0 1-2.82-1.46 4.7 4.7 0 0 1-1.15-1.7 8.6 8.6 0 0 1-.43-2.54c-.03-.4-.04-1.46-.04-3.2v-5.8h-3.92v-5.3h3.92V6.96zm22.4 19.5h4.52v4.7h-4.52v-4.7zm27.93-2.26h3.1c-.04 2.35-.58 4.06-1.6 5.13a5.9 5.9 0 0 1-3.02 1.64c-1.27.3-3.15.46-5.65.46-3.34 0-5.8-.12-7.4-.37s-2.83-.7-3.68-1.32c-1.9-1.43-2.83-4.15-2.83-8.16 0-2.84.4-4.97 1.22-6.4a6.1 6.1 0 0 1 3.46-2.82c1.5-.5 3.98-.74 7.4-.74 3.1 0 5.4.16 6.9.48s2.65.88 3.44 1.68a5.1 5.1 0 0 1 1.21 1.98c.25.75.4 1.75.46 3h-3.2c-.04-1.82-.63-3.02-1.78-3.6s-3.5-.87-7.03-.87c-3.47 0-5.75.35-6.82 1.06-.7.46-1.22 1.2-1.54 2.23s-.48 2.42-.48 4.2c0 1.68.2 3 .58 3.98a3.8 3.8 0 0 0 1.82 2.09c1.14.58 3.7.88 7.67.88 3.13 0 5.2-.3 6.18-.87s1.5-1.8 1.58-3.67zm15.57-12.58l6.73.28a8.8 8.8 0 0 1 3.39 1.01 6.3 6.3 0 0 1 2.65 3.12c.55 1.35.8 3.18.8 5.5 0 2.58-.33 4.54-.98 5.88a6 6 0 0 1-1.9 2.38 8 8 0 0 1-3.12 1.24c-1.25.26-3.32.4-6.23.4a52.1 52.1 0 0 1-6.21-.27c-1.4-.18-2.53-.5-3.4-1-1.3-.7-2.2-1.7-2.77-3.06s-.83-3.24-.83-5.67c0-2.7.4-4.77 1.2-6.17.8-1.44 1.94-2.4 3.38-2.9s3.87-.74 7.28-.75zm.5 2.7c-2.02 0-3.55.07-4.58.22a6.4 6.4 0 0 0-2.46.8c-.72.46-1.24 1.2-1.57 2.2s-.5 2.36-.5 4.08c0 1.95.22 3.42.65 4.4s1.18 1.66 2.24 2.06c1.17.45 3.44.67 6.82.67a34.7 34.7 0 0 0 4.85-.24 5.6 5.6 0 0 0 2.47-.92 3.9 3.9 0 0 0 1.46-2.14c.3-.95.44-2.3.44-4 0-2.03-.23-3.53-.7-4.48-.52-1.06-1.37-1.76-2.57-2.12s-3.4-.53-6.56-.53zm14.33-2.46h3.07v2.54c.96-1.17 1.93-1.92 2.9-2.27s2.65-.52 5-.52c3.16 0 5.43.23 6.8.7a5.7 5.7 0 0 1 3.21 2.67 5.1 5.1 0 0 1 2.9-2.62c1.3-.48 3.34-.73 6.1-.73 2.63 0 4.6.17 5.9.5a6.4 6.4 0 0 1 3.19 1.83 5.2 5.2 0 0 1 1.22 2.37c.2.88.28 2.44.28 4.7v10.15h-3.05V20.3c0-2.37-.35-3.9-1.06-4.6-.95-.94-3.12-1.4-6.5-1.4a18.5 18.5 0 0 0-4.44.4 4.4 4.4 0 0 0-2.32 1.3c-.53.62-.9 1.46-1.08 2.5s-.28 2.73-.28 5.08v7.6h-3.05V20.3c0-1.37-.07-2.38-.22-3.03s-.43-1.17-.83-1.55c-1-.95-3.17-1.42-6.55-1.42-1.95 0-3.46.13-4.5.4a4.7 4.7 0 0 0-2.43 1.35c-.5.56-.8 1.32-.97 2.28a38.6 38.6 0 0 0-.23 5.23v7.6h-3.05v-19.3z"/></g></svg>